<svg width="21" height="24" viewBox="0 0 21 24" fill="none" xmlns="http://www.w3.org/2000/svg">
<path d="M21 9.83953C18.9363 9.84447 16.9233 9.20088 15.2452 7.99969V16.3772C15.2446 17.9288 14.7703 19.4432 13.8858 20.718C13.0013 21.9928 11.7487 22.9672 10.2954 23.5109C8.84221 24.0545 7.25762 24.1416 5.75358 23.7604C4.24954 23.3791 2.89772 22.5478 1.87889 21.3776C0.86006 20.2074 0.22278 18.754 0.0522624 17.2118C-0.118255 15.6696 0.186117 14.112 0.924681 12.7475C1.66325 11.3829 2.8008 10.2764 4.18523 9.5758C5.56966 8.87521 7.13498 8.61398 8.67189 8.82703V13.0406C7.9686 12.8194 7.21339 12.8261 6.51411 13.0597C5.81483 13.2933 5.20725 13.7418 4.77812 14.3413C4.34899 14.9408 4.12027 15.6606 4.12461 16.3979C4.12895 17.1351 4.36614 17.8521 4.8023 18.4466C5.23846 19.041 5.85129 19.4824 6.55327 19.7077C7.25525 19.933 8.01049 19.9308 8.71112 19.7013C9.41176 19.4718 10.022 19.0268 10.4546 18.4298C10.8872 17.8329 11.1202 17.1145 11.1202 16.3772V0H15.2452C15.2423 0.348347 15.2715 0.696219 15.3324 1.03922C15.4757 1.80491 15.7737 2.53332 16.2082 3.17988C16.6427 3.82643 17.2046 4.37756 17.8594 4.79953C18.791 5.41551 19.8832 5.74383 21 5.74359V9.83953Z" fill="white"/>
</svg>
